<?xml version="1.0" standalone="no"?>
<!DOCTYPE svg PUBLIC "-//W3C//DTD SVG 20010904//EN"
 "http://www.w3.org/TR/2001/REC-SVG-20010904/DTD/svg10.dtd">
<svg version="1.0" xmlns="http://www.w3.org/2000/svg"
 width="225.000000pt" height="225.000000pt" viewBox="0 0 225.000000 225.000000"
 preserveAspectRatio="xMidYMid meet">

<g transform="translate(0.000000,225.000000) scale(0.100000,-0.100000)"
fill="#000000" stroke="none">
<path d="M975 2239 c-237 -30 -481 -153 -652 -330 -91 -93 -147 -171 -203
-284 -277 -559 -45 -1239 515 -1510 553 -268 1222 -40 1495 510 276 557 50
1230 -505 1505 -204 101 -422 137 -650 109z m397 -137 c183 -49 332 -135 463
-267 132 -131 216 -277 267 -463 31 -112 31 -382 0 -494 -51 -186 -135 -332
-267 -463 -131 -132 -277 -216 -463 -267 -112 -31 -382 -31 -494 0 -186 51
-332 135 -463 267 -132 132 -218 280 -267 463 -29 110 -35 309 -14 425 77 408
379 719 786 808 115 25 340 21 452 -9z"/>
<path d="M572 1524 c-14 -10 -22 -26 -22 -44 0 -61 -10 -60 575 -60 585 0 575
-1 575 60 0 61 10 60 -575 60 -464 0 -533 -2 -553 -16z"/>
<path d="M567 1162 c-22 -24 -21 -55 1 -75 17 -15 70 -17 559 -17 510 0 541 1
556 18 22 24 21 55 -1 75 -17 15 -70 17 -559 17 -510 0 -541 -1 -556 -18z"/>
<path d="M572 814 c-14 -10 -22 -26 -22 -44 0 -61 -10 -60 575 -60 585 0 575
-1 575 60 0 61 10 60 -575 60 -464 0 -533 -2 -553 -16z"/>
</g>
</svg>
