<?xml version="1.0" standalone="no"?>
<!DOCTYPE svg PUBLIC "-//W3C//DTD SVG 20010904//EN"
 "http://www.w3.org/TR/2001/REC-SVG-20010904/DTD/svg10.dtd">
<svg version="1.0" xmlns="http://www.w3.org/2000/svg"
 width="225.000000pt" height="225.000000pt" viewBox="0 0 225.000000 225.000000"
 preserveAspectRatio="xMidYMid meet">

<g transform="translate(0.000000,225.000000) scale(0.100000,-0.100000)"
fill="#000000" stroke="none">
<path d="M601 2049 c-206 -27 -323 -111 -371 -266 -36 -118 -42 -224 -38 -723
4 -451 5 -479 26 -554 48 -172 126 -247 308 -293 62 -16 124 -18 599 -18 475
0 537 2 599 18 96 24 146 48 195 93 56 50 86 104 113 200 22 77 22 92 23 614
0 480 -2 542 -18 604 -24 96 -48 146 -93 195 -50 56 -104 86 -200 113 -76 21
-99 22 -579 24 -275 1 -529 -2 -564 -7z m123 -594 c8 -8 24 -40 35 -70 32 -85
89 -194 137 -262 45 -64 80 -86 95 -62 5 8 9 71 9 140 0 122 -1 129 -30 184
-42 81 -37 85 110 85 65 0 125 -3 134 -6 14 -5 16 -29 16 -164 0 -170 3 -190
29 -190 37 0 139 136 203 270 17 36 38 70 47 77 25 19 186 17 206 -3 25 -25
-3 -89 -116 -264 -38 -59 -69 -114 -69 -124 0 -9 33 -51 74 -94 140 -148 176
-215 127 -242 -26 -13 -164 -13 -194 1 -13 6 -54 44 -90 84 -68 75 -147 135
-178 135 -28 0 -39 -32 -39 -118 0 -88 -5 -97 -60 -105 -139 -20 -325 77 -438
230 -140 189 -259 454 -223 497 19 22 193 23 215 1z"/>
</g>
</svg>
