<?xml version="1.0" standalone="no"?>
<!DOCTYPE svg PUBLIC "-//W3C//DTD SVG 20010904//EN"
 "http://www.w3.org/TR/2001/REC-SVG-20010904/DTD/svg10.dtd">
<svg version="1.0" xmlns="http://www.w3.org/2000/svg"
 width="225.000000pt" height="225.000000pt" viewBox="0 0 225.000000 225.000000"
 preserveAspectRatio="xMidYMid meet">

<g transform="translate(0.000000,225.000000) scale(0.100000,-0.100000)"
fill="#000000" stroke="none">
<path d="M637 2239 c-195 -14 -330 -69 -443 -183 -79 -79 -128 -168 -160 -291
-17 -64 -19 -117 -19 -640 0 -637 0 -634 72 -785 45 -94 150 -203 238 -247
155 -78 280 -93 805 -93 395 0 579 11 676 41 168 51 291 153 363 299 75 154
76 161 76 795 -1 548 -1 562 -23 640 -34 122 -78 200 -157 281 -118 119 -242
168 -470 184 -153 11 -803 10 -958 -1z m1065 -213 c37 -8 88 -24 113 -35 62
-28 150 -113 179 -175 50 -107 51 -124 51 -691 0 -417 -3 -542 -14 -585 -44
-175 -142 -273 -318 -317 -60 -16 -129 -18 -578 -18 -453 0 -518 2 -585 18
-148 35 -253 119 -298 240 -39 102 -44 197 -39 718 4 516 5 524 50 631 20 48
99 133 152 163 111 64 232 75 810 70 317 -3 425 -7 477 -19z"/>
<path d="M1673 1845 c-104 -45 -94 -207 15 -245 37 -13 47 -13 84 0 110 39
119 202 13 246 -43 17 -71 17 -112 -1z"/>
<path d="M992 1686 c-188 -46 -352 -199 -413 -388 -33 -103 -33 -243 1 -347
49 -152 162 -280 305 -347 94 -43 176 -58 283 -51 246 15 447 179 518 422 23
80 23 220 0 300 -59 202 -220 359 -421 410 -71 18 -199 18 -273 1z m288 -218
c76 -35 140 -95 181 -170 33 -61 34 -67 34 -173 0 -106 -1 -112 -34 -173 -41
-75 -103 -135 -179 -170 -49 -23 -70 -27 -152 -27 -82 0 -103 4 -152 27 -156
73 -247 241 -219 401 25 144 124 257 264 303 66 22 190 13 257 -18z"/>
</g>
</svg>
