<?xml version="1.0" standalone="no"?>
<!DOCTYPE svg PUBLIC "-//W3C//DTD SVG 20010904//EN"
 "http://www.w3.org/TR/2001/REC-SVG-20010904/DTD/svg10.dtd">
<svg version="1.0" xmlns="http://www.w3.org/2000/svg"
 width="225.000000pt" height="225.000000pt" viewBox="0 0 225.000000 225.000000"
 preserveAspectRatio="xMidYMid meet">

<g transform="translate(0.000000,225.000000) scale(0.100000,-0.100000)"
fill="#000000" stroke="none">
<path d="M1110 1536 c-415 -161 -765 -298 -777 -304 -30 -17 -53 -41 -53 -57
0 -25 39 -42 245 -107 l201 -64 454 288 c250 158 463 288 472 288 9 0 19 -4
23 -9 3 -5 -161 -159 -363 -342 l-369 -332 -12 -194 c-7 -107 -10 -197 -8
-200 12 -11 58 25 153 119 68 67 106 98 115 93 7 -5 100 -73 206 -152 199
-147 225 -159 273 -133 10 5 23 25 29 42 16 50 271 1254 271 1281 0 39 -36 77
-73 76 -18 0 -372 -132 -787 -293z"/>
</g>
</svg>
