<?xml version="1.0" standalone="no"?>
<!DOCTYPE svg PUBLIC "-//W3C//DTD SVG 20010904//EN"
 "http://www.w3.org/TR/2001/REC-SVG-20010904/DTD/svg10.dtd">
<svg version="1.0" xmlns="http://www.w3.org/2000/svg"
 width="1017.000000pt" height="508.000000pt" viewBox="0 0 1017.000000 508.000000"
 preserveAspectRatio="xMidYMid meet">

<g transform="translate(0.000000,508.000000) scale(0.100000,-0.100000)"
fill="#000000" stroke="none">
<path d="M1901 4657 c-76 -24 -76 -25 -431 -883 -184 -445 -336 -823 -338
-841 -3 -25 1 -35 21 -47 58 -39 45 -66 411 820 186 451 344 825 350 832 20
20 74 17 104 -5 49 -37 67 -80 67 -163 0 -72 -5 -87 -143 -443 -78 -202 -142
-376 -142 -386 0 -23 31 -51 57 -51 11 0 27 8 35 18 9 9 80 184 158 387 135
350 143 375 147 455 4 70 1 95 -16 140 -28 74 -70 123 -133 154 -55 28 -92 31
-147 13z"/>
<path d="M1335 4596 c-39 -17 -82 -67 -89 -103 -28 -137 -226 -1308 -226
-1334 0 -19 5 -40 12 -47 20 -20 66 -14 81 11 8 12 65 319 127 682 73 426 119
666 128 678 8 9 28 17 43 17 34 0 53 -25 75 -99 19 -64 49 -83 89 -57 30 20
32 51 9 122 -22 64 -55 107 -97 128 -42 19 -110 20 -152 2z"/>
<path d="M8312 3183 l3 -1218 55 0 55 0 3 633 2 632 345 0 345 0 0 55 0 55
-345 0 -345 0 0 530 0 530 -60 0 -60 0 2 -1217z"/>
<path d="M826 4307 c-48 -27 -75 -62 -86 -113 -11 -46 5 -878 20 -1099 15
-224 27 -285 86 -463 96 -289 236 -609 396 -906 106 -197 225 -396 247 -413
12 -9 137 -12 508 -13 l492 0 20 26 c12 15 21 41 21 59 0 56 30 195 60 276 37
102 68 145 186 259 307 294 488 478 506 513 47 94 31 205 -41 270 l-38 34 31
42 c57 79 35 175 -69 311 -142 185 -425 432 -563 491 -55 24 -108 24 -200 0
-310 -81 -781 -360 -851 -504 -28 -57 -38 -155 -19 -181 15 -20 63 -25 79 -9
6 6 17 41 24 79 17 79 43 110 165 198 154 111 363 219 544 281 153 52 183 54
248 17 150 -86 446 -366 521 -493 50 -86 48 -149 -5 -149 -26 0 -50 17 -243
169 -197 156 -275 208 -320 217 -86 16 -383 -199 -444 -321 -29 -58 -25 -106
18 -199 78 -172 226 -340 322 -366 103 -28 355 97 541 268 60 55 73 62 109 62
33 0 47 -6 75 -34 39 -39 44 -81 16 -132 -9 -18 -123 -134 -252 -258 -129
-125 -267 -260 -305 -300 -101 -104 -156 -226 -192 -418 l-16 -88 -436 0 -436
0 -72 123 c-276 470 -542 1086 -582 1347 -22 139 -34 443 -35 865 l-1 439 26
15 c41 23 77 8 100 -43 27 -62 75 -76 105 -31 15 22 15 28 0 73 -9 27 -29 61
-45 76 -52 50 -150 61 -215 23z"/>
<path d="M3407 3343 c-4 -3 -7 -307 -7 -675 l0 -668 370 0 370 0 0 55 0 55
-315 0 -315 0 0 268 0 267 292 -3 c161 -1 303 0 316 3 l22 5 -2 348 -3 347
-361 3 c-198 1 -363 -1 -367 -5z m623 -348 l0 -245 -260 0 -260 0 0 245 0 245
260 0 260 0 0 -245z"/>
<path d="M4457 3343 c-4 -3 -7 -312 -7 -685 l0 -678 55 0 55 0 2 329 3 329
240 -315 c131 -173 243 -317 247 -319 10 -6 78 45 78 58 0 8 -178 246 -432
574 l-78 102 263 253 262 254 3 53 3 52 -344 0 c-189 0 -347 -3 -350 -7z m523
-107 c0 -2 -94 -95 -210 -206 l-210 -202 0 206 0 206 210 0 c116 0 210 -2 210
-4z"/>
<path d="M5430 1875 l0 -1455 50 0 50 0 0 620 0 620 300 0 300 0 0 -615 0
-615 50 0 50 0 0 670 0 670 -350 0 -350 0 0 440 0 440 190 0 190 0 0 55 0 55
-190 0 -190 0 2 233 3 232 308 3 307 2 0 50 0 50 -360 0 -360 0 0 -1455z"/>
<path d="M6420 2660 l0 -670 371 0 370 0 -3 53 -3 52 -313 0 -312 0 0 268 0
267 299 0 c165 0 306 3 315 6 14 5 16 46 16 350 l0 344 -370 0 -370 0 0 -670z
m630 325 l0 -245 -260 0 -260 0 0 245 0 245 260 0 260 0 0 -245z"/>
<path d="M7400 2660 l0 -670 371 0 370 0 -3 53 -3 52 -313 0 -312 0 0 568 0
567 310 0 310 0 0 50 0 50 -365 0 -365 0 0 -670z"/>
<path d="M7822 1118 l3 -673 365 0 365 0 3 53 3 52 -315 0 -316 0 0 565 0 565
310 0 310 0 0 55 0 55 -365 0 -365 0 2 -672z"/>
<path d="M8760 1115 l0 -675 368 2 367 3 3 53 3 52 -320 0 -321 0 0 270 0 270
318 2 317 3 0 345 0 345 -367 3 -368 2 0 -675z m628 325 l-3 -241 -260 0 -260
0 -3 241 -2 240 265 0 265 0 -2 -240z"/>
<path d="M4450 1105 l0 -675 370 0 370 0 0 55 0 55 -315 0 -315 0 0 565 0 565
310 0 310 0 0 55 0 55 -365 0 -365 0 0 -675z"/>
<path d="M6437 1773 c-4 -3 -7 -307 -7 -675 l0 -668 370 0 370 0 -2 673 -3
672 -361 3 c-198 1 -363 -1 -367 -5z m623 -668 l0 -565 -260 0 -260 0 0 565 0
565 260 0 260 0 0 -565z"/>
<path d="M7440 1110 l0 -670 55 0 55 0 0 670 0 670 -55 0 -55 0 0 -670z"/>
</g>
</svg>
